<svg width="944" height="688" viewBox="0 0 944 688" fill="none" xmlns="http://www.w3.org/2000/svg">
<path d="M202.909 225.898C10.1661 346.126 34.1474 498.923 332.512 559.86C630.876 620.798 823.348 425.58 882.288 320.354C909.376 253.268 916.778 103.138 729.684 39.3029C542.591 -24.532 338.243 141.482 202.909 225.898Z" fill="#9C6644"/>
<path d="M154.817 231.504C-55.5185 362.721 -29.3757 529.451 296.181 595.907C621.738 662.362 831.79 449.316 896.121 334.486C925.689 261.278 933.791 97.4544 729.65 27.8222C525.509 -41.81 302.503 139.371 154.817 231.504Z" stroke="#7F5539"/>
<path d="M176.251 286.261C-7.71263 432.829 34.6801 596.791 348.176 638.22C661.671 679.649 836.636 451.657 884.932 332.483C904.951 257.375 895.098 93.706 695.537 39.8982C495.977 -13.9096 305.419 183.35 176.251 286.261Z" stroke="#7F5539"/>
</svg>
