<svg width="956" height="688" viewBox="0 0 956 688" fill="none" xmlns="http://www.w3.org/2000/svg">
<path d="M202.909 227.671C10.1661 347.898 34.1474 500.696 332.512 561.633C630.876 622.57 823.348 427.352 882.288 322.126C909.376 255.041 916.778 104.91 729.684 41.0751C542.591 -22.7598 338.243 143.254 202.909 227.671Z" fill="#AD8042"/>
<path d="M154.817 233.276C-55.5185 364.494 -29.3757 531.223 296.181 597.679C621.738 664.134 831.79 451.088 896.121 336.258C925.689 263.05 933.791 99.2266 729.65 29.5944C525.509 -40.0379 302.503 141.143 154.817 233.276Z" stroke="#7F5539"/>
<path d="M188.501 286.261C4.53823 432.829 46.931 596.791 360.426 638.22C673.922 679.649 848.887 451.657 897.183 332.483C917.202 257.375 907.349 93.706 707.788 39.8982C508.228 -13.9096 317.67 183.35 188.501 286.261Z" stroke="#7F5539"/>
</svg>
