<svg xmlns="http://www.w3.org/2000/svg" viewBox="0 0 900.49 862.74"><defs><style>.cls-1{fill:#f4c551;}</style></defs><g id="Layer_2" data-name="Layer 2"><g id="Objects"><path class="cls-1" d="M450.25,30a33.76,33.76,0,0,1,30.86,19.19L585.33,260.35l7,14.15,15.61,2.26,233,33.87A34.42,34.42,0,0,1,860,369.34L691.4,533.71l-11.29,11,2.67,15.54,39.8,232.09a33.11,33.11,0,0,1-7.36,27.79,35.27,35.27,0,0,1-26.55,12.6,34.18,34.18,0,0,1-16-4.1L464.21,719.06l-14-7.34-14,7.34L227.86,828.64a34.24,34.24,0,0,1-16,4.1,35.27,35.27,0,0,1-26.56-12.6,33.18,33.18,0,0,1-7.36-27.79l39.81-232.09,2.66-15.54-11.29-11L40.47,369.34a34.42,34.42,0,0,1,19.07-58.71l233-33.87,15.6-2.26,7-14.15L419.38,49.19A33.77,33.77,0,0,1,450.25,30m0-30a63.66,63.66,0,0,0-57.77,35.91L288.26,247.08l-233,33.86c-52.84,7.68-73.94,72.61-35.7,109.88L188.15,555.19,148.34,787.28c-7.14,41.64,25.95,75.46,63.49,75.46a64.14,64.14,0,0,0,30-7.55L450.25,745.61,658.68,855.19a64.11,64.11,0,0,0,30,7.55c37.54,0,70.62-33.82,63.48-75.46L712.34,555.19,881,390.82c38.24-37.27,17.14-102.2-35.7-109.88l-233-33.86L508,35.91A63.68,63.68,0,0,0,450.25,0Z"/></g></g></svg>